<mxfile host="app.diagrams.net" modified="2024-03-18T18:09:01.403Z" agent="Mozilla/5.0 (Macintosh; Intel Mac OS X 10_15_7) AppleWebKit/537.36 (KHTML, like Gecko) Chrome/120.0.0.0 Safari/537.36" etag="L2w45fz_WJQPDnzu5cAi" version="24.0.7" type="github">
  <diagram name="PÃ¡gina-1" id="_RkekqJDtRQY65GHvYCt">
    <mxGraphModel dx="896" dy="510" grid="1" gridSize="10" guides="1" tooltips="1" connect="1" arrows="1" fold="1" page="1" pageScale="1" pageWidth="827" pageHeight="1169" math="0" shadow="0">
      <root>
        <mxCell id="0" />
        <mxCell id="1" parent="0" />
        <mxCell id="Q7CfWqvU--quD_P38He8-1" value="Base" style="swimlane;fontStyle=0;childLayout=stackLayout;horizontal=1;startSize=30;horizontalStack=0;resizeParent=1;resizeParentMax=0;resizeLast=0;collapsible=1;marginBottom=0;whiteSpace=wrap;html=1;" vertex="1" parent="1">
          <mxGeometry x="60" y="120" width="140" height="150" as="geometry" />
        </mxCell>
        <mxCell id="Q7CfWqvU--quD_P38He8-2" value="-a: str&lt;div&gt;-b: str&lt;/div&gt;&lt;div&gt;-c: str&lt;/div&gt;" style="text;strokeColor=none;fillColor=none;align=left;verticalAlign=middle;spacingLeft=4;spacingRight=4;overflow=hidden;points=[[0,0.5],[1,0.5]];portConstraint=eastwest;rotatable=0;whiteSpace=wrap;html=1;" vertex="1" parent="Q7CfWqvU--quD_P38He8-1">
          <mxGeometry y="30" width="140" height="50" as="geometry" />
        </mxCell>
        <mxCell id="Q7CfWqvU--quD_P38He8-5" value="" style="endArrow=none;dashed=1;html=1;rounded=0;exitX=-0.014;exitY=0.2;exitDx=0;exitDy=0;exitPerimeter=0;entryX=0.993;entryY=0.167;entryDx=0;entryDy=0;entryPerimeter=0;" edge="1" parent="Q7CfWqvU--quD_P38He8-1">
          <mxGeometry width="50" height="50" relative="1" as="geometry">
            <mxPoint x="-0.9800000000000364" y="82.31" as="sourcePoint" />
            <mxPoint x="139.99999999999997" y="80.00000000000006" as="targetPoint" />
          </mxGeometry>
        </mxCell>
        <mxCell id="Q7CfWqvU--quD_P38He8-3" value="+init()&lt;div&gt;+A()&lt;/div&gt;&lt;div&gt;+B()&lt;/div&gt;&lt;div&gt;+C()&lt;/div&gt;" style="text;strokeColor=none;fillColor=none;align=left;verticalAlign=middle;spacingLeft=4;spacingRight=4;overflow=hidden;points=[[0,0.5],[1,0.5]];portConstraint=eastwest;rotatable=0;whiteSpace=wrap;html=1;" vertex="1" parent="Q7CfWqvU--quD_P38He8-1">
          <mxGeometry y="80" width="140" height="70" as="geometry" />
        </mxCell>
        <mxCell id="Q7CfWqvU--quD_P38He8-6" value="Derivada" style="swimlane;fontStyle=0;childLayout=stackLayout;horizontal=1;startSize=30;horizontalStack=0;resizeParent=1;resizeParentMax=0;resizeLast=0;collapsible=1;marginBottom=0;whiteSpace=wrap;html=1;" vertex="1" parent="1">
          <mxGeometry x="290" y="120" width="140" height="120" as="geometry" />
        </mxCell>
        <mxCell id="Q7CfWqvU--quD_P38He8-7" value="-a: str&lt;div&gt;-c: str&lt;/div&gt;" style="text;strokeColor=none;fillColor=none;align=left;verticalAlign=middle;spacingLeft=4;spacingRight=4;overflow=hidden;points=[[0,0.5],[1,0.5]];portConstraint=eastwest;rotatable=0;whiteSpace=wrap;html=1;" vertex="1" parent="Q7CfWqvU--quD_P38He8-6">
          <mxGeometry y="30" width="140" height="30" as="geometry" />
        </mxCell>
        <mxCell id="Q7CfWqvU--quD_P38He8-8" value="+init()&lt;div&gt;+A()&lt;/div&gt;&lt;div&gt;+B()&lt;/div&gt;" style="text;strokeColor=none;fillColor=none;align=left;verticalAlign=middle;spacingLeft=4;spacingRight=4;overflow=hidden;points=[[0,0.5],[1,0.5]];portConstraint=eastwest;rotatable=0;whiteSpace=wrap;html=1;" vertex="1" parent="Q7CfWqvU--quD_P38He8-6">
          <mxGeometry y="60" width="140" height="60" as="geometry" />
        </mxCell>
        <mxCell id="Q7CfWqvU--quD_P38He8-10" value="" style="endArrow=none;dashed=1;html=1;rounded=0;exitX=-0.029;exitY=0.067;exitDx=0;exitDy=0;exitPerimeter=0;entryX=0.986;entryY=0.067;entryDx=0;entryDy=0;entryPerimeter=0;" edge="1" parent="Q7CfWqvU--quD_P38He8-6" source="Q7CfWqvU--quD_P38He8-8" target="Q7CfWqvU--quD_P38He8-8">
          <mxGeometry width="50" height="50" relative="1" as="geometry">
            <mxPoint x="50" y="90" as="sourcePoint" />
            <mxPoint x="100" y="40" as="targetPoint" />
          </mxGeometry>
        </mxCell>
      </root>
    </mxGraphModel>
  </diagram>
</mxfile>
